<svg width="32" height="32" viewBox="0 0 32 32" fill="none" xmlns="http://www.w3.org/2000/svg">
  <!-- Brop Logo - Scaled down for favicon -->
  <path d="M17.9 0H14C13.1 0 12.2 0.6 11.8 1.5L1.3 28.6C0.7 30.1 1.8 31.8 3.5 31.8H7.5C8.5 31.8 9.4 31.2 9.8 30.3L20.1 3.3C20.7 1.7 19.6 0 17.9 0Z" fill="#3827C7"/>
  <path d="M16.1 19L17 16.6C17.7 14.9 19.9 14.5 21.1 15.8L32 27.8C33.4 29.3 32.4 31.8 30.4 31.8H14.8C13.1 31.8 11.9 30.2 12.5 28.6L13.3 26.4C13.7 25.4 14.6 24.8 15.6 24.8H18.4C19 24.8 19.4 24.1 18.9 23.6L16.8 21.6C16.1 21 15.9 20 16.1 19Z" fill="#FDC448"/>
</svg>
