<svg width="1388" height="448" viewBox="0 0 1388 448" fill="none" xmlns="http://www.w3.org/2000/svg">
<path d="M221.908 27.0155H174.466C162.149 27.0155 151.09 34.5634 146.601 46.0338L15.975 379.857C8.29622 399.48 22.7669 420.682 43.8394 420.682H93.5537C105.936 420.682 117.038 413.055 121.482 401.498L249.836 67.6756C257.372 48.0773 242.905 27.0155 221.908 27.0155Z" fill="white"/>
<path d="M200.791 262.444L212.261 232.036C220.123 211.191 247.195 205.942 262.278 222.339L398.854 370.805C416.497 389.984 402.892 420.984 376.832 420.984H183.392C162.381 420.984 147.913 399.898 155.475 380.295L166.03 352.928C170.482 341.387 181.577 333.775 193.947 333.775H229.346C236.919 333.775 240.547 324.472 234.972 319.345L208.532 295.028C199.546 286.763 196.482 273.868 200.791 262.444Z" fill="white"/>
<path d="M642.967 373H544.809V74.4224H585.864V149.067H642.967C709.4 149.067 759.412 196.839 759.412 261.033C759.412 325.228 709.4 373 642.967 373ZM585.864 333.438H642.967C684.394 333.438 716.491 302.834 716.491 261.033C716.491 219.233 684.394 188.628 642.967 188.628H585.864V333.438ZM783.54 214.754C783.54 176.685 812.278 149.067 852.213 149.067H907.45V188.628H852.213C835.418 188.628 824.594 199.825 824.594 214.754V373H783.54V214.754ZM1024.06 376.732C957.628 376.732 907.243 327.467 907.243 261.033C907.243 194.6 957.628 145.335 1024.06 145.335C1090.49 145.335 1140.51 194.6 1140.51 261.033C1140.51 327.467 1090.49 376.732 1024.06 376.732ZM950.163 261.033C950.163 305.074 982.26 337.171 1024.06 337.171C1065.49 337.171 1097.59 305.074 1097.59 261.033C1097.59 216.993 1065.49 184.896 1024.06 184.896C982.26 184.896 950.163 216.993 950.163 261.033ZM1164.78 447.644V149.067H1262.94C1329.37 149.067 1379.38 196.839 1379.38 261.033C1379.38 325.228 1329.37 373 1262.94 373H1205.83V447.644H1164.78ZM1205.83 333.438H1262.94C1304.37 333.438 1336.46 302.834 1336.46 261.033C1336.46 219.233 1304.37 188.628 1262.94 188.628H1205.83V333.438Z" fill="white"/>
</svg>
